# xmcd CD database file
#
# Track frame offsets:
#	150
#	13912
#	53525
#	121595
#	150909
#	200897
#	204250
#	227485
#	274631
#
# Disc length: 4287 seconds
#
# Revision: 0
# Processed by: cddbd v1.5.1PL2 Copyright (c) Steve Scherf et al.
# Submitted via: Feurio! 1.68 - http://www.feurio.com
#
DISCID=6810bd09
DTITLE=Electric Wizard - Dopethrone
DYEAR=1900
DGENRE=Sludge
TTITLE0=Vinum Sabbathi
TTITLE1=Funeralopolis
TTITLE2=Weird Tales
TTITLE3=Barbarian
TTITLE4=I, The Witchfinder
TTITLE5=The Hills Have Eyes
TTITLE6=We Hate You
TTITLE7=Dopethrone
TTITLE8=Mind Transferral
EXTD=
EXTT0=
EXTT1=
EXTT2=
EXTT3=
EXTT4=
EXTT5=
EXTT6=
EXTT7=
EXTT8=
PLAYORDER=
